<?xml version="1.0" encoding="UTF-8" standalone="no"?>
<svg
   version="1.2"
   width="163.84961mm"
   height="214.98999mm"
   viewBox="0 0 16384.961 21498.999"
   preserveAspectRatio="xMidYMid"
   fill-rule="evenodd"
   stroke-width="28.222"
   stroke-linejoin="round"
   xml:space="preserve"
   id="svg1235"
   sodipodi:docname="AngryGorilla2.svg"
   inkscape:version="1.2.2 (732a01da63, 2022-12-09, custom)"
   xmlns:inkscape="http://www.inkscape.org/namespaces/inkscape"
   xmlns:sodipodi="http://sodipodi.sourceforge.net/DTD/sodipodi-0.dtd"
   xmlns="http://www.w3.org/2000/svg"
   xmlns:svg="http://www.w3.org/2000/svg"
   xmlns:ooo="http://xml.openoffice.org/svg/export"><sodipodi:namedview
   id="namedview1237"
   pagecolor="#ffffff"
   bordercolor="#000000"
   borderopacity="0.25"
   inkscape:showpageshadow="2"
   inkscape:pageopacity="0.0"
   inkscape:pagecheckerboard="0"
   inkscape:deskcolor="#d1d1d1"
   inkscape:document-units="mm"
   showgrid="false"
   inkscape:zoom="0.99579545"
   inkscape:cx="327.37647"
   inkscape:cy="409.7227"
   inkscape:window-width="1920"
   inkscape:window-height="1031"
   inkscape:window-x="0"
   inkscape:window-y="25"
   inkscape:window-maximized="1"
   inkscape:current-layer="layer1" />
 <defs
   class="ClipPathGroup"
   id="defs1121">
  <clipPath
   id="presentation_clip_path"
   clipPathUnits="userSpaceOnUse">
   <rect
   x="0"
   y="0"
   width="18000"
   height="22000"
   id="rect1115" />
  </clipPath>
  <clipPath
   id="presentation_clip_path_shrink"
   clipPathUnits="userSpaceOnUse">
   <rect
   x="18"
   y="22"
   width="17964"
   height="21956"
   id="rect1118" />
  </clipPath>
 </defs>
 <defs
   class="TextShapeIndex"
   id="defs1125">
  <g
   ooo:slide="id1"
   ooo:id-list="id3 id4 id5 id6 id7 id8 id9 id10 id11"
   id="g1123" />
 </defs>
 <defs
   class="EmbeddedBulletChars"
   id="defs1157">
  <g
   id="bullet-char-template-57356"
   transform="matrix(4.8828125e-4,0,0,-4.8828125e-4,0,0)">
   <path
   d="M 580,1141 1163,571 580,0 -4,571 Z"
   id="path1127" />
  </g>
  <g
   id="bullet-char-template-57354"
   transform="matrix(4.8828125e-4,0,0,-4.8828125e-4,0,0)">
   <path
   d="M 8,1128 H 1137 V 0 H 8 Z"
   id="path1130" />
  </g>
  <g
   id="bullet-char-template-10146"
   transform="matrix(4.8828125e-4,0,0,-4.8828125e-4,0,0)">
   <path
   d="M 174,0 602,739 174,1481 1456,739 Z M 1358,739 309,1346 659,739 Z"
   id="path1133" />
  </g>
  <g
   id="bullet-char-template-10132"
   transform="matrix(4.8828125e-4,0,0,-4.8828125e-4,0,0)">
   <path
   d="M 2015,739 1276,0 H 717 l 543,543 H 174 v 393 h 1086 l -543,545 h 557 z"
   id="path1136" />
  </g>
  <g
   id="bullet-char-template-10007"
   transform="matrix(4.8828125e-4,0,0,-4.8828125e-4,0,0)">
   <path
   d="m 0,-2 c -7,16 -16,29 -25,39 l 381,530 c -94,256 -141,385 -141,387 0,25 13,38 40,38 9,0 21,-2 34,-5 21,4 42,12 65,25 l 27,-13 111,-251 280,301 64,-25 24,25 c 21,-10 41,-24 62,-43 C 886,937 835,863 770,784 769,783 710,716 594,584 L 774,223 c 0,-27 -21,-55 -63,-84 l 16,-20 C 717,90 699,76 672,76 641,76 570,178 457,381 L 164,-76 c -22,-34 -53,-51 -92,-51 -42,0 -63,17 -64,51 -7,9 -10,24 -10,44 0,9 1,19 2,30 z"
   id="path1139" />
  </g>
  <g
   id="bullet-char-template-10004"
   transform="matrix(4.8828125e-4,0,0,-4.8828125e-4,0,0)">
   <path
   d="M 285,-33 C 182,-33 111,30 74,156 52,228 41,333 41,471 c 0,78 14,145 41,201 34,71 87,106 158,106 53,0 88,-31 106,-94 l 23,-176 c 8,-64 28,-97 59,-98 l 735,706 c 11,11 33,17 66,17 42,0 63,-15 63,-46 V 965 c 0,-36 -10,-64 -30,-84 L 442,47 C 390,-6 338,-33 285,-33 Z"
   id="path1142" />
  </g>
  <g
   id="bullet-char-template-9679"
   transform="matrix(4.8828125e-4,0,0,-4.8828125e-4,0,0)">
   <path
   d="M 813,0 C 632,0 489,54 383,161 276,268 223,411 223,592 c 0,181 53,324 160,431 106,107 249,161 430,161 179,0 323,-54 432,-161 108,-107 162,-251 162,-431 0,-180 -54,-324 -162,-431 C 1136,54 992,0 813,0 Z"
   id="path1145" />
  </g>
  <g
   id="bullet-char-template-8226"
   transform="matrix(4.8828125e-4,0,0,-4.8828125e-4,0,0)">
   <path
   d="m 346,457 c -73,0 -137,26 -191,78 -54,51 -81,114 -81,188 0,73 27,136 81,188 54,52 118,78 191,78 73,0 134,-26 185,-79 51,-51 77,-114 77,-187 0,-75 -25,-137 -76,-188 -50,-52 -112,-78 -186,-78 z"
   id="path1148" />
  </g>
  <g
   id="bullet-char-template-8211"
   transform="matrix(4.8828125e-4,0,0,-4.8828125e-4,0,0)">
   <path
   d="M -4,459 H 1135 V 606 H -4 Z"
   id="path1151" />
  </g>
  <g
   id="bullet-char-template-61548"
   transform="matrix(4.8828125e-4,0,0,-4.8828125e-4,0,0)">
   <path
   d="m 173,740 c 0,163 58,303 173,419 116,115 255,173 419,173 163,0 302,-58 418,-173 116,-116 174,-256 174,-419 0,-163 -58,-303 -174,-418 C 1067,206 928,148 765,148 601,148 462,206 346,322 231,437 173,577 173,740 Z"
   id="path1154" />
  </g>
 </defs>
 
 
<g
   inkscape:groupmode="layer"
   id="layer1"
   inkscape:label="Layer 1"
   transform="translate(-225,-171)"><path
     fill="#000000"
     stroke="none"
     d="m 15640,17915 33,-829 c 44,-1088 329,-2152 835,-3117 215,-408 80,-913 -311,-1160 -1412,-893 -1902,-2720 -1125,-4199 137,-260 130,-573 -17,-827 -147,-255 -414,-416 -708,-428 -233,-10 -445,-138 -562,-340 -117,-202 -122,-450 -13,-657 l -453,-1736 c -272,-1045 -953,-1938 -1888,-2479 -71,-41 -144,-80 -217,-116 l -314,-467 C 10356,751 9468,238 8495,171 l 400,345 c 337,290 562,674 660,1089 -120,-4 -241,-3 -361,3 C 8960,1113 8507,745 7958,624 l 373,588 c 97,152 149,324 156,497 -50,12 -98,25 -147,38 -98,27 -195,58 -290,92 -234,-261 -575,-411 -935,-400 l 238,353 c 65,96 107,203 127,312 -848,484 -1485,1289 -1751,2254 l -138,210 C 5203,5159 4747,5646 4219,6033 2223,7495 1041,9484 710,11935 l -485,3593 1056,-464 c -72,203 -109,420 -106,643 l 4,330 c 244,-829 1096,-1321 1935,-1118 l 350,85 c 320,254 528,627 573,1039 126,1148 944,2102 2060,2401 1116,299 2301,-118 2984,-1050 504,-686 1377,-993 2199,-773 l 388,267 c 693,478 937,1390 575,2152 l 261,-313 c 110,-132 204,-276 281,-427 5,30 9,60 12,90 128,1165 -186,2335 -879,3280 l 1335,-572 c 1072,-460 1927,-1315 2387,-2387 z"
     id="path1166"
     style="display:inline" /><path
     fill="#ffff00"
     stroke="none"
     d="m 9877,14347 406,-149 c 911,-335 1913,-335 2825,0 171,63 266,246 219,422 -47,176 -221,286 -400,255 -952,-165 -1925,-165 -2876,0 -137,24 -271,-56 -315,-189 -43,-132 11,-291 141,-339 z"
     id="path1208" /><path
     fill="#ffff00"
     stroke="none"
     d="m 14216,12416 c 12,24 26,48 41,71 186,293 181,648 -14,935 l -428,633 -27,-17 c -878,-582 -1878,-714 -2878,-380 l -2131,714 c -250,84 -525,19 -711,-167 -187,-186 -251,-462 -168,-711 l -83,-232 c -169,-475 -122,-1000 130,-1436 252,-436 683,-740 1179,-830 l 714,-469 c 333,-220 897,-181 1262,252 236,281 488,-153 743,-281 239,-121 522,-112 754,21 232,134 381,375 396,642 308,547 803,262 1221,1255 z"
     id="path1201"
     style="display:inline" /><path
     fill="rgb(0,0,0)"
     stroke="none"
     d="m 9515,11431 c 135,-357 320,-669 778,-595 308,51 587,212 785,454 73,90 183,141 298,141 116,0 225,-51 298,-141 141,-171 351,-271 572,-271 222,0 432,100 572,271 l -128,-4 c -209,-7 -416,48 -594,159 -400,249 -908,249 -1308,0 -637,-396 -868,26 -1273,-14 z"
     id="path1215"
     style="fill:#d4aa00" /><path
     fill="#ffff00"
     stroke="none"
     d="m 13340,7105 -341,588 c 397,36 602,361 487,771 l -190,671 c 134,-503 -117,-901 -602,-953 l -330,-35 c -895,700 -1262,1143 -1386,2215 C 10796,9483 9838,8737 9145,8232 l -522,-381 -995,315 846,-1 C 7467,8806 6495,9516 5571,10287 l -472,394 c 19,-501 370,-1053 894,-1405 L 7005,8596 5587,9185 C 6110,8524 6830,7998 7594,7718 l 498,-182 -1647,-440 c 1650,-258 3083,168 3931,1169 l 457,539 c 571,-615 1265,-1123 2007,-1467 z"
     id="path1180"
     style="display:inline" /><path
     fill="#dee6ef"
     stroke="none"
     d="m 11760,9642 123,-132 c 171,-183 392,-310 635,-367 l 76,240 c 46,142 7,298 -98,404 -272,272 -510,22 -736,-145 z"
     id="path1173"
     style="display:inline" /><path
     fill="#dee6ef"
     stroke="none"
     d="m 9707,9806 c -347,255 -712,638 -1128,222 -163,-162 -221,-402 -152,-621 l 116,-367 c 374,86 714,282 975,563 z"
     id="path1187"
     style="display:inline" /><path
     fill="#ff0000"
     stroke="none"
     d="m 12509,9575 c 0,52 -14,104 -40,150 -27,45 -65,83 -110,110 -46,26 -98,40 -150,40 -53,0 -105,-14 -151,-40 -45,-27 -83,-65 -110,-110 -26,-46 -40,-98 -40,-150 0,-53 14,-105 40,-151 27,-45 65,-83 110,-110 46,-26 98,-40 151,-40 52,0 104,14 150,40 45,27 83,65 110,110 26,46 40,98 40,151 z"
     id="path1194" /><path
     fill="#ff0000"
     stroke="none"
     d="m 9251,9777 c 0,52 -14,104 -40,150 -27,45 -65,83 -110,110 -46,26 -98,40 -150,40 -53,0 -105,-14 -151,-40 -45,-27 -83,-65 -110,-110 -26,-46 -40,-98 -40,-150 0,-53 14,-105 40,-151 27,-45 65,-83 110,-110 46,-26 98,-40 151,-40 52,0 104,14 150,40 45,27 83,65 110,110 26,46 40,98 40,151 z"
     id="path1222" /></g></svg>
